# This file is brought to you by Roblox Corporation
# Generated by Roblox Studio

mtllib button.mtl

g Part1

v -14.4999 7.51408 6.5 1 1 1 1 
v -15.207 7.51408 7.20711 1 1 1 1 
v -15.332 7.51408 7.0547 1 1 1 1 
v -15.4486 7.51408 6.81623 1 1 1 1 
v -15.4999 7.51408 6.5 1 1 1 1 
v -15.4486 7.51408 6.18377 1 1 1 1 
v -15.332 7.51408 5.9453 1 1 1 1 
v -15.207 7.51408 5.79289 1 1 1 1 
v -15.207 7.51408 5.79289 1 1 1 1 
v -15.0546 7.51408 5.66795 1 1 1 1 
v -14.8162 7.51408 5.55132 1 1 1 1 
v -14.4999 7.51408 5.5 1 1 1 1 
v -14.1837 7.51408 5.55132 1 1 1 1 
v -13.9452 7.51408 5.66795 1 1 1 1 
v -13.7928 7.51408 5.79289 1 1 1 1 
v -13.7928 7.51408 5.79289 1 1 1 1 
v -13.6679 7.51408 5.9453 1 1 1 1 
v -13.5513 7.51408 6.18377 1 1 1 1 
v -13.4999 7.51408 6.5 1 1 1 1 
v -13.5513 7.51408 6.81623 1 1 1 1 
v -13.6679 7.51408 7.0547 1 1 1 1 
v -13.7928 7.51408 7.20711 1 1 1 1 
v -13.7928 7.51408 7.20711 1 1 1 1 
v -13.9452 7.51408 7.33205 1 1 1 1 
v -14.1837 7.51408 7.44868 1 1 1 1 
v -14.4999 7.51408 7.5 1 1 1 1 
v -14.8162 7.51408 7.44868 1 1 1 1 
v -15.0546 7.51408 7.33205 1 1 1 1 
v -15.207 7.51408 7.20711 1 1 1 1 
v -13.7928 7.17803 7.20711 1 1 1 1 
v -13.7928 7.51408 7.20711 1 1 1 1 
v -13.9452 7.17803 7.33205 1 1 1 1 
v -13.9452 7.51408 7.33205 1 1 1 1 
v -14.1837 7.17803 7.44868 1 1 1 1 
v -14.1837 7.51408 7.44868 1 1 1 1 
v -14.4999 7.17803 7.5 1 1 1 1 
v -14.4999 7.51408 7.5 1 1 1 1 
v -14.8162 7.17803 7.44868 1 1 1 1 
v -14.8162 7.51408 7.44868 1 1 1 1 
v -15.0546 7.17803 7.33205 1 1 1 1 
v -15.0546 7.51408 7.33205 1 1 1 1 
v -15.207 7.17803 7.20711 1 1 1 1 
v -15.207 7.51408 7.20711 1 1 1 1 
v -13.7928 7.51408 7.20711 1 1 1 1 
v -13.7928 7.17803 7.20711 1 1 1 1 
v -13.6679 7.51408 7.0547 1 1 1 1 
v -13.6679 7.17803 7.0547 1 1 1 1 
v -13.5513 7.51408 6.81623 1 1 1 1 
v -13.5513 7.17803 6.81623 1 1 1 1 
v -13.4999 7.51408 6.5 1 1 1 1 
v -13.4999 7.17803 6.5 1 1 1 1 
v -13.5513 7.51408 6.18377 1 1 1 1 
v -13.5513 7.17803 6.18377 1 1 1 1 
v -13.6679 7.51408 5.9453 1 1 1 1 
v -13.6679 7.17803 5.9453 1 1 1 1 
v -13.7928 7.51408 5.79289 1 1 1 1 
v -13.7928 7.17803 5.79289 1 1 1 1 
v -14.4999 7.17803 6.5 1 1 1 1 
v -13.7928 7.17803 7.20711 1 1 1 1 
v -13.6679 7.17803 7.0547 1 1 1 1 
v -13.5513 7.17803 6.81623 1 1 1 1 
v -13.4999 7.17803 6.5 1 1 1 1 
v -13.5513 7.17803 6.18377 1 1 1 1 
v -13.6679 7.17803 5.9453 1 1 1 1 
v -13.7928 7.17803 5.79289 1 1 1 1 
v -13.7928 7.17803 5.79289 1 1 1 1 
v -13.9452 7.17803 5.66795 1 1 1 1 
v -14.1837 7.17803 5.55132 1 1 1 1 
v -14.4999 7.17803 5.5 1 1 1 1 
v -14.8162 7.17803 5.55132 1 1 1 1 
v -15.0546 7.17803 5.66795 1 1 1 1 
v -15.207 7.17803 5.79289 1 1 1 1 
v -15.207 7.17803 5.79289 1 1 1 1 
v -15.332 7.17803 5.9453 1 1 1 1 
v -15.4486 7.17803 6.18377 1 1 1 1 
v -15.4999 7.17803 6.5 1 1 1 1 
v -15.4486 7.17803 6.81623 1 1 1 1 
v -15.332 7.17803 7.0547 1 1 1 1 
v -15.207 7.17803 7.20711 1 1 1 1 
v -15.207 7.17803 7.20711 1 1 1 1 
v -15.0546 7.17803 7.33205 1 1 1 1 
v -14.8162 7.17803 7.44868 1 1 1 1 
v -14.4999 7.17803 7.5 1 1 1 1 
v -14.1837 7.17803 7.44868 1 1 1 1 
v -13.9452 7.17803 7.33205 1 1 1 1 
v -13.7928 7.17803 7.20711 1 1 1 1 
v -15.207 7.17803 5.79289 1 1 1 1 
v -15.207 7.51408 5.79289 1 1 1 1 
v -15.0546 7.17803 5.66795 1 1 1 1 
v -15.0546 7.51408 5.66795 1 1 1 1 
v -14.8162 7.17803 5.55132 1 1 1 1 
v -14.8162 7.51408 5.55132 1 1 1 1 
v -14.4999 7.17803 5.5 1 1 1 1 
v -14.4999 7.51408 5.5 1 1 1 1 
v -14.1837 7.17803 5.55132 1 1 1 1 
v -14.1837 7.51408 5.55132 1 1 1 1 
v -13.9452 7.17803 5.66795 1 1 1 1 
v -13.9452 7.51408 5.66795 1 1 1 1 
v -13.7928 7.17803 5.79289 1 1 1 1 
v -13.7928 7.51408 5.79289 1 1 1 1 
v -15.207 7.17803 7.20711 1 1 1 1 
v -15.207 7.51408 7.20711 1 1 1 1 
v -15.332 7.17803 7.0547 1 1 1 1 
v -15.332 7.51408 7.0547 1 1 1 1 
v -15.4486 7.17803 6.81623 1 1 1 1 
v -15.4486 7.51408 6.81623 1 1 1 1 
v -15.4999 7.17803 6.5 1 1 1 1 
v -15.4999 7.51408 6.5 1 1 1 1 
v -15.4486 7.17803 6.18377 1 1 1 1 
v -15.4486 7.51408 6.18377 1 1 1 1 
v -15.332 7.17803 5.9453 1 1 1 1 
v -15.332 7.51408 5.9453 1 1 1 1 
v -15.207 7.17803 5.79289 1 1 1 1 
v -15.207 7.51408 5.79289 1 1 1 1 

vn 0 1 0 
vn 0 1 0 
vn 0 1 0 
vn 0 1 0 
vn 0 1 0 
vn 0 1 0 
vn 0 1 0 
vn 0 1 0 
vn 0 1 0 
vn 0 1 0 
vn 0 1 0 
vn 0 1 0 
vn 0 1 0 
vn 0 1 0 
vn 0 1 0 
vn 0 1 0 
vn 0 1 0 
vn 0 1 0 
vn 0 1 0 
vn 0 1 0 
vn 0 1 0 
vn 0 1 0 
vn 0 1 0 
vn 0 1 0 
vn 0 1 0 
vn 0 1 0 
vn 0 1 0 
vn 0 1 0 
vn 0 1 0 
vn 0.708661 0 0.708661 
vn 0.708661 0 0.708661 
vn 0.551181 0 0.834646 
vn 0.551181 0 0.834646 
vn 0.314961 0 0.944882 
vn 0.314961 0 0.944882 
vn 0 0 1 
vn 0 0 1 
vn -0.314961 0 0.944882 
vn -0.314961 0 0.944882 
vn -0.551181 0 0.834646 
vn -0.551181 0 0.834646 
vn -0.708661 0 0.708661 
vn -0.708661 0 0.708661 
vn 0.708661 0 0.708661 
vn 0.708661 0 0.708661 
vn 0.834646 0 0.551181 
vn 0.834646 0 0.551181 
vn 0.944882 0 0.314961 
vn 0.944882 0 0.314961 
vn 1 0 0 
vn 1 0 0 
vn 0.944882 0 -0.314961 
vn 0.944882 0 -0.314961 
vn 0.834646 0 -0.551181 
vn 0.834646 0 -0.551181 
vn 0.708661 0 -0.708661 
vn 0.708661 0 -0.708661 
vn 0 -1 0 
vn 0 -1 0 
vn 0 -1 0 
vn 0 -1 0 
vn 0 -1 0 
vn 0 -1 0 
vn 0 -1 0 
vn 0 -1 0 
vn 0 -1 0 
vn 0 -1 0 
vn 0 -1 0 
vn 0 -1 0 
vn 0 -1 0 
vn 0 -1 0 
vn 0 -1 0 
vn 0 -1 0 
vn 0 -1 0 
vn 0 -1 0 
vn 0 -1 0 
vn 0 -1 0 
vn 0 -1 0 
vn 0 -1 0 
vn 0 -1 0 
vn 0 -1 0 
vn 0 -1 0 
vn 0 -1 0 
vn 0 -1 0 
vn 0 -1 0 
vn 0 -1 0 
vn -0.708661 0 -0.708661 
vn -0.708661 0 -0.708661 
vn -0.551181 0 -0.834646 
vn -0.551181 0 -0.834646 
vn -0.314961 0 -0.944882 
vn -0.314961 0 -0.944882 
vn 0 0 -1 
vn 0 0 -1 
vn 0.314961 0 -0.944882 
vn 0.314961 0 -0.944882 
vn 0.551181 0 -0.834646 
vn 0.551181 0 -0.834646 
vn 0.708661 0 -0.708661 
vn 0.708661 0 -0.708661 
vn -0.708661 0 0.708661 
vn -0.708661 0 0.708661 
vn -0.834646 0 0.551181 
vn -0.834646 0 0.551181 
vn -0.944882 0 0.314961 
vn -0.944882 0 0.314961 
vn -1 0 0 
vn -1 0 0 
vn -0.944882 0 -0.314961 
vn -0.944882 0 -0.314961 
vn -0.834646 0 -0.551181 
vn -0.834646 0 -0.551181 
vn -0.708661 0 -0.708661 
vn -0.708661 0 -0.708661 

vt 6.625 -6.125 
vt 6.71339 -6.03661 
vt 6.72901 -6.05566 
vt 6.74359 -6.08547 
vt 6.75 -6.125 
vt 6.74359 -6.16453 
vt 6.72901 -6.19434 
vt 6.71339 -6.21339 
vt 6.71339 -6.21339 
vt 6.69434 -6.22901 
vt 6.66453 -6.24359 
vt 6.625 -6.25 
vt 6.58547 -6.24359 
vt 6.55566 -6.22901 
vt 6.53661 -6.21339 
vt 6.53661 -6.21339 
vt 6.52099 -6.19434 
vt 6.50641 -6.16453 
vt 6.5 -6.125 
vt 6.50641 -6.08547 
vt 6.52099 -6.05566 
vt 6.53661 -6.03661 
vt 6.53661 -6.03661 
vt 6.55566 -6.02099 
vt 6.58547 -6.00641 
vt 6.625 -6 
vt 6.66453 -6.00641 
vt 6.69434 -6.02099 
vt 6.71339 -6.03661 
vt 13.042 -13 
vt 13 -13 
vt 13.042 -13.0417 
vt 13 -13.0417 
vt 13.042 -13.0833 
vt 13 -13.0833 
vt 13.042 -13.125 
vt 13 -13.125 
vt 13.042 -13.1667 
vt 13 -13.1667 
vt 13.042 -13.2083 
vt 13 -13.2083 
vt 13.042 -13.25 
vt 13 -13.25 
vt 13.042 -13 
vt 13 -13 
vt 13.042 -13.0417 
vt 13 -13.0417 
vt 13.042 -13.0833 
vt 13 -13.0833 
vt 13.042 -13.125 
vt 13 -13.125 
vt 13.042 -13.1667 
vt 13 -13.1667 
vt 13.042 -13.2083 
vt 13 -13.2083 
vt 13.042 -13.25 
vt 13 -13.25 
vt 6.625 -6.125 
vt 6.71339 -6.03661 
vt 6.72901 -6.05566 
vt 6.74359 -6.08547 
vt 6.75 -6.125 
vt 6.74359 -6.16453 
vt 6.72901 -6.19434 
vt 6.71339 -6.21339 
vt 6.71339 -6.21339 
vt 6.69434 -6.22901 
vt 6.66453 -6.24359 
vt 6.625 -6.25 
vt 6.58547 -6.24359 
vt 6.55566 -6.22901 
vt 6.53661 -6.21339 
vt 6.53661 -6.21339 
vt 6.52099 -6.19434 
vt 6.50641 -6.16453 
vt 6.5 -6.125 
vt 6.50641 -6.08547 
vt 6.52099 -6.05566 
vt 6.53661 -6.03661 
vt 6.53661 -6.03661 
vt 6.55566 -6.02099 
vt 6.58547 -6.00641 
vt 6.625 -6 
vt 6.66453 -6.00641 
vt 6.69434 -6.02099 
vt 6.71339 -6.03661 
vt 13.042 -13 
vt 13 -13 
vt 13.042 -13.0417 
vt 13 -13.0417 
vt 13.042 -13.0833 
vt 13 -13.0833 
vt 13.042 -13.125 
vt 13 -13.125 
vt 13.042 -13.1667 
vt 13 -13.1667 
vt 13.042 -13.2083 
vt 13 -13.2083 
vt 13.042 -13.25 
vt 13 -13.25 
vt 13.042 -13 
vt 13 -13 
vt 13.042 -13.0417 
vt 13 -13.0417 
vt 13.042 -13.0833 
vt 13 -13.0833 
vt 13.042 -13.125 
vt 13 -13.125 
vt 13.042 -13.1667 
vt 13 -13.1667 
vt 13.042 -13.2083 
vt 13 -13.2083 
vt 13.042 -13.25 
vt 13 -13.25 

usemtl Part1Mtl

f 1/1/1 3/3/3 2/2/2 
f 1/1/1 4/4/4 3/3/3 
f 1/1/1 5/5/5 4/4/4 
f 1/1/1 6/6/6 5/5/5 
f 1/1/1 7/7/7 6/6/6 
f 1/1/1 8/8/8 7/7/7 
f 1/1/1 10/10/10 9/9/9 
f 1/1/1 11/11/11 10/10/10 
f 1/1/1 12/12/12 11/11/11 
f 1/1/1 13/13/13 12/12/12 
f 1/1/1 14/14/14 13/13/13 
f 1/1/1 15/15/15 14/14/14 
f 1/1/1 17/17/17 16/16/16 
f 1/1/1 18/18/18 17/17/17 
f 1/1/1 19/19/19 18/18/18 
f 1/1/1 20/20/20 19/19/19 
f 1/1/1 21/21/21 20/20/20 
f 1/1/1 22/22/22 21/21/21 
f 1/1/1 24/24/24 23/23/23 
f 1/1/1 25/25/25 24/24/24 
f 1/1/1 26/26/26 25/25/25 
f 1/1/1 27/27/27 26/26/26 
f 1/1/1 28/28/28 27/27/27 
f 1/1/1 29/29/29 28/28/28 
f 30/30/30 31/31/31 32/32/32 
f 32/32/32 31/31/31 33/33/33 
f 32/32/32 33/33/33 34/34/34 
f 34/34/34 33/33/33 35/35/35 
f 34/34/34 35/35/35 36/36/36 
f 36/36/36 35/35/35 37/37/37 
f 36/36/36 37/37/37 38/38/38 
f 38/38/38 37/37/37 39/39/39 
f 38/38/38 39/39/39 40/40/40 
f 40/40/40 39/39/39 41/41/41 
f 40/40/40 41/41/41 42/42/42 
f 42/42/42 41/41/41 43/43/43 
f 44/44/44 45/45/45 46/46/46 
f 46/46/46 45/45/45 47/47/47 
f 46/46/46 47/47/47 48/48/48 
f 48/48/48 47/47/47 49/49/49 
f 48/48/48 49/49/49 50/50/50 
f 50/50/50 49/49/49 51/51/51 
f 50/50/50 51/51/51 52/52/52 
f 52/52/52 51/51/51 53/53/53 
f 52/52/52 53/53/53 54/54/54 
f 54/54/54 53/53/53 55/55/55 
f 54/54/54 55/55/55 56/56/56 
f 56/56/56 55/55/55 57/57/57 
f 58/58/58 60/60/60 59/59/59 
f 58/58/58 61/61/61 60/60/60 
f 58/58/58 62/62/62 61/61/61 
f 58/58/58 63/63/63 62/62/62 
f 58/58/58 64/64/64 63/63/63 
f 58/58/58 65/65/65 64/64/64 
f 58/58/58 67/67/67 66/66/66 
f 58/58/58 68/68/68 67/67/67 
f 58/58/58 69/69/69 68/68/68 
f 58/58/58 70/70/70 69/69/69 
f 58/58/58 71/71/71 70/70/70 
f 58/58/58 72/72/72 71/71/71 
f 58/58/58 74/74/74 73/73/73 
f 58/58/58 75/75/75 74/74/74 
f 58/58/58 76/76/76 75/75/75 
f 58/58/58 77/77/77 76/76/76 
f 58/58/58 78/78/78 77/77/77 
f 58/58/58 79/79/79 78/78/78 
f 58/58/58 81/81/81 80/80/80 
f 58/58/58 82/82/82 81/81/81 
f 58/58/58 83/83/83 82/82/82 
f 58/58/58 84/84/84 83/83/83 
f 58/58/58 85/85/85 84/84/84 
f 58/58/58 86/86/86 85/85/85 
f 87/87/87 88/88/88 89/89/89 
f 89/89/89 88/88/88 90/90/90 
f 89/89/89 90/90/90 91/91/91 
f 91/91/91 90/90/90 92/92/92 
f 91/91/91 92/92/92 93/93/93 
f 93/93/93 92/92/92 94/94/94 
f 93/93/93 94/94/94 95/95/95 
f 95/95/95 94/94/94 96/96/96 
f 95/95/95 96/96/96 97/97/97 
f 97/97/97 96/96/96 98/98/98 
f 97/97/97 98/98/98 99/99/99 
f 99/99/99 98/98/98 100/100/100 
f 101/101/101 102/102/102 103/103/103 
f 103/103/103 102/102/102 104/104/104 
f 103/103/103 104/104/104 105/105/105 
f 105/105/105 104/104/104 106/106/106 
f 105/105/105 106/106/106 107/107/107 
f 107/107/107 106/106/106 108/108/108 
f 107/107/107 108/108/108 109/109/109 
f 109/109/109 108/108/108 110/110/110 
f 109/109/109 110/110/110 111/111/111 
f 111/111/111 110/110/110 112/112/112 
f 111/111/111 112/112/112 113/113/113 
f 113/113/113 112/112/112 114/114/114 

g Part2

v -14.4999 7.17804 6.5 1 1 1 1 
v -15.5606 7.17804 7.56066 1 1 1 1 
v -15.748 7.17804 7.33205 1 1 1 1 
v -15.923 7.17804 6.97434 1 1 1 1 
v -15.9999 7.17804 6.5 1 1 1 1 
v -15.923 7.17804 6.02566 1 1 1 1 
v -15.748 7.17804 5.66795 1 1 1 1 
v -15.5606 7.17804 5.43934 1 1 1 1 
v -15.5606 7.17804 5.43934 1 1 1 1 
v -15.332 7.17804 5.25192 1 1 1 1 
v -14.9743 7.17804 5.07697 1 1 1 1 
v -14.4999 7.17804 5 1 1 1 1 
v -14.0256 7.17804 5.07697 1 1 1 1 
v -13.6679 7.17804 5.25192 1 1 1 1 
v -13.4393 7.17804 5.43934 1 1 1 1 
v -13.4393 7.17804 5.43934 1 1 1 1 
v -13.2519 7.17804 5.66795 1 1 1 1 
v -13.0769 7.17804 6.02566 1 1 1 1 
v -12.9999 7.17804 6.5 1 1 1 1 
v -13.0769 7.17804 6.97434 1 1 1 1 
v -13.2519 7.17804 7.33205 1 1 1 1 
v -13.4393 7.17804 7.56066 1 1 1 1 
v -13.4393 7.17804 7.56066 1 1 1 1 
v -13.6679 7.17804 7.74808 1 1 1 1 
v -14.0256 7.17804 7.92303 1 1 1 1 
v -14.4999 7.17804 8 1 1 1 1 
v -14.9743 7.17804 7.92303 1 1 1 1 
v -15.332 7.17804 7.74808 1 1 1 1 
v -15.5606 7.17804 7.56066 1 1 1 1 
v -13.4393 6.50597 7.56066 1 1 1 1 
v -13.4393 7.17804 7.56066 1 1 1 1 
v -13.6679 6.50597 7.74808 1 1 1 1 
v -13.6679 7.17804 7.74808 1 1 1 1 
v -14.0256 6.50597 7.92303 1 1 1 1 
v -14.0256 7.17804 7.92303 1 1 1 1 
v -14.4999 6.50597 8 1 1 1 1 
v -14.4999 7.17804 8 1 1 1 1 
v -14.9743 6.50597 7.92303 1 1 1 1 
v -14.9743 7.17804 7.92303 1 1 1 1 
v -15.332 6.50597 7.74808 1 1 1 1 
v -15.332 7.17804 7.74808 1 1 1 1 
v -15.5606 6.50597 7.56066 1 1 1 1 
v -15.5606 7.17804 7.56066 1 1 1 1 
v -13.4393 7.17804 7.56066 1 1 1 1 
v -13.4393 6.50597 7.56066 1 1 1 1 
v -13.2519 7.17804 7.33205 1 1 1 1 
v -13.2519 6.50597 7.33205 1 1 1 1 
v -13.0769 7.17804 6.97434 1 1 1 1 
v -13.0769 6.50597 6.97434 1 1 1 1 
v -12.9999 7.17804 6.5 1 1 1 1 
v -12.9999 6.50597 6.5 1 1 1 1 
v -13.0769 7.17804 6.02566 1 1 1 1 
v -13.0769 6.50597 6.02566 1 1 1 1 
v -13.2519 7.17804 5.66795 1 1 1 1 
v -13.2519 6.50597 5.66795 1 1 1 1 
v -13.4393 7.17804 5.43934 1 1 1 1 
v -13.4393 6.50597 5.43934 1 1 1 1 
v -14.4999 6.50597 6.5 1 1 1 1 
v -13.4393 6.50597 7.56066 1 1 1 1 
v -13.2519 6.50597 7.33205 1 1 1 1 
v -13.0769 6.50597 6.97434 1 1 1 1 
v -12.9999 6.50597 6.5 1 1 1 1 
v -13.0769 6.50597 6.02566 1 1 1 1 
v -13.2519 6.50597 5.66795 1 1 1 1 
v -13.4393 6.50597 5.43934 1 1 1 1 
v -13.4393 6.50597 5.43934 1 1 1 1 
v -13.6679 6.50597 5.25192 1 1 1 1 
v -14.0256 6.50597 5.07697 1 1 1 1 
v -14.4999 6.50597 5 1 1 1 1 
v -14.9743 6.50597 5.07697 1 1 1 1 
v -15.332 6.50597 5.25192 1 1 1 1 
v -15.5606 6.50597 5.43934 1 1 1 1 
v -15.5606 6.50597 5.43934 1 1 1 1 
v -15.748 6.50597 5.66795 1 1 1 1 
v -15.923 6.50597 6.02566 1 1 1 1 
v -15.9999 6.50597 6.5 1 1 1 1 
v -15.923 6.50597 6.97434 1 1 1 1 
v -15.748 6.50597 7.33205 1 1 1 1 
v -15.5606 6.50597 7.56066 1 1 1 1 
v -15.5606 6.50597 7.56066 1 1 1 1 
v -15.332 6.50597 7.74808 1 1 1 1 
v -14.9743 6.50597 7.92303 1 1 1 1 
v -14.4999 6.50597 8 1 1 1 1 
v -14.0256 6.50597 7.92303 1 1 1 1 
v -13.6679 6.50597 7.74808 1 1 1 1 
v -13.4393 6.50597 7.56066 1 1 1 1 
v -15.5606 6.50597 5.43934 1 1 1 1 
v -15.5606 7.17804 5.43934 1 1 1 1 
v -15.332 6.50597 5.25192 1 1 1 1 
v -15.332 7.17804 5.25192 1 1 1 1 
v -14.9743 6.50597 5.07697 1 1 1 1 
v -14.9743 7.17804 5.07697 1 1 1 1 
v -14.4999 6.50597 5 1 1 1 1 
v -14.4999 7.17804 5 1 1 1 1 
v -14.0256 6.50597 5.07697 1 1 1 1 
v -14.0256 7.17804 5.07697 1 1 1 1 
v -13.6679 6.50597 5.25192 1 1 1 1 
v -13.6679 7.17804 5.25192 1 1 1 1 
v -13.4393 6.50597 5.43934 1 1 1 1 
v -13.4393 7.17804 5.43934 1 1 1 1 
v -15.5606 6.50597 7.56066 1 1 1 1 
v -15.5606 7.17804 7.56066 1 1 1 1 
v -15.748 6.50597 7.33205 1 1 1 1 
v -15.748 7.17804 7.33205 1 1 1 1 
v -15.923 6.50597 6.97434 1 1 1 1 
v -15.923 7.17804 6.97434 1 1 1 1 
v -15.9999 6.50597 6.5 1 1 1 1 
v -15.9999 7.17804 6.5 1 1 1 1 
v -15.923 6.50597 6.02566 1 1 1 1 
v -15.923 7.17804 6.02566 1 1 1 1 
v -15.748 6.50597 5.66795 1 1 1 1 
v -15.748 7.17804 5.66795 1 1 1 1 
v -15.5606 6.50597 5.43934 1 1 1 1 
v -15.5606 7.17804 5.43934 1 1 1 1 

vn 0 1 0 
vn 0 1 0 
vn 0 1 0 
vn 0 1 0 
vn 0 1 0 
vn 0 1 0 
vn 0 1 0 
vn 0 1 0 
vn 0 1 0 
vn 0 1 0 
vn 0 1 0 
vn 0 1 0 
vn 0 1 0 
vn 0 1 0 
vn 0 1 0 
vn 0 1 0 
vn 0 1 0 
vn 0 1 0 
vn 0 1 0 
vn 0 1 0 
vn 0 1 0 
vn 0 1 0 
vn 0 1 0 
vn 0 1 0 
vn 0 1 0 
vn 0 1 0 
vn 0 1 0 
vn 0 1 0 
vn 0 1 0 
vn 0.708661 0 0.708661 
vn 0.708661 0 0.708661 
vn 0.551181 0 0.834646 
vn 0.551181 0 0.834646 
vn 0.314961 0 0.944882 
vn 0.314961 0 0.944882 
vn 0 0 1 
vn 0 0 1 
vn -0.314961 0 0.944882 
vn -0.314961 0 0.944882 
vn -0.551181 0 0.834646 
vn -0.551181 0 0.834646 
vn -0.708661 0 0.708661 
vn -0.708661 0 0.708661 
vn 0.708661 0 0.708661 
vn 0.708661 0 0.708661 
vn 0.834646 0 0.551181 
vn 0.834646 0 0.551181 
vn 0.944882 0 0.314961 
vn 0.944882 0 0.314961 
vn 1 0 0 
vn 1 0 0 
vn 0.944882 0 -0.314961 
vn 0.944882 0 -0.314961 
vn 0.834646 0 -0.551181 
vn 0.834646 0 -0.551181 
vn 0.708661 0 -0.708661 
vn 0.708661 0 -0.708661 
vn 0 -1 0 
vn 0 -1 0 
vn 0 -1 0 
vn 0 -1 0 
vn 0 -1 0 
vn 0 -1 0 
vn 0 -1 0 
vn 0 -1 0 
vn 0 -1 0 
vn 0 -1 0 
vn 0 -1 0 
vn 0 -1 0 
vn 0 -1 0 
vn 0 -1 0 
vn 0 -1 0 
vn 0 -1 0 
vn 0 -1 0 
vn 0 -1 0 
vn 0 -1 0 
vn 0 -1 0 
vn 0 -1 0 
vn 0 -1 0 
vn 0 -1 0 
vn 0 -1 0 
vn 0 -1 0 
vn 0 -1 0 
vn 0 -1 0 
vn 0 -1 0 
vn 0 -1 0 
vn -0.708661 0 -0.708661 
vn -0.708661 0 -0.708661 
vn -0.551181 0 -0.834646 
vn -0.551181 0 -0.834646 
vn -0.314961 0 -0.944882 
vn -0.314961 0 -0.944882 
vn 0 0 -1 
vn 0 0 -1 
vn 0.314961 0 -0.944882 
vn 0.314961 0 -0.944882 
vn 0.551181 0 -0.834646 
vn 0.551181 0 -0.834646 
vn 0.708661 0 -0.708661 
vn 0.708661 0 -0.708661 
vn -0.708661 0 0.708661 
vn -0.708661 0 0.708661 
vn -0.834646 0 0.551181 
vn -0.834646 0 0.551181 
vn -0.944882 0 0.314961 
vn -0.944882 0 0.314961 
vn -1 0 0 
vn -1 0 0 
vn -0.944882 0 -0.314961 
vn -0.944882 0 -0.314961 
vn -0.834646 0 -0.551181 
vn -0.834646 0 -0.551181 
vn -0.708661 0 -0.708661 
vn -0.708661 0 -0.708661 

vt 6.1875 0.8125 
vt 6.32008 0.945083 
vt 6.34351 0.916506 
vt 6.36538 0.871793 
vt 6.375 0.8125 
vt 6.36538 0.753207 
vt 6.34351 0.708494 
vt 6.32008 0.679917 
vt 6.32008 0.679917 
vt 6.29151 0.656491 
vt 6.24679 0.634622 
vt 6.1875 0.625 
vt 6.12821 0.634622 
vt 6.08349 0.656491 
vt 6.05492 0.679917 
vt 6.05492 0.679917 
vt 6.03149 0.708494 
vt 6.00962 0.753207 
vt 6 0.8125 
vt 6.00962 0.871793 
vt 6.03149 0.916506 
vt 6.05492 0.945083 
vt 6.05492 0.945083 
vt 6.08349 0.968509 
vt 6.12821 0.990378 
vt 6.1875 1 
vt 6.24679 0.990378 
vt 6.29151 0.968509 
vt 6.32008 0.945082 
vt 12.084 1 
vt 12 1 
vt 12.084 0.9375 
vt 12 0.9375 
vt 12.084 0.875 
vt 12 0.875 
vt 12.084 0.8125 
vt 12 0.8125 
vt 12.084 0.75 
vt 12 0.75 
vt 12.084 0.6875 
vt 12 0.6875 
vt 12.084 0.625 
vt 12 0.625 
vt 12.084 1 
vt 12 1 
vt 12.084 0.9375 
vt 12 0.9375 
vt 12.084 0.875 
vt 12 0.875 
vt 12.084 0.8125 
vt 12 0.8125 
vt 12.084 0.75 
vt 12 0.75 
vt 12.084 0.6875 
vt 12 0.6875 
vt 12.084 0.625 
vt 12 0.625 
vt 6.1875 0.8125 
vt 6.32008 0.945083 
vt 6.34351 0.916506 
vt 6.36538 0.871793 
vt 6.375 0.8125 
vt 6.36538 0.753207 
vt 6.34351 0.708494 
vt 6.32008 0.679917 
vt 6.32008 0.679917 
vt 6.29151 0.656491 
vt 6.24679 0.634622 
vt 6.1875 0.625 
vt 6.12821 0.634622 
vt 6.08349 0.656491 
vt 6.05492 0.679917 
vt 6.05492 0.679917 
vt 6.03149 0.708494 
vt 6.00962 0.753207 
vt 6 0.8125 
vt 6.00962 0.871793 
vt 6.03149 0.916506 
vt 6.05492 0.945083 
vt 6.05492 0.945083 
vt 6.08349 0.968509 
vt 6.12821 0.990378 
vt 6.1875 1 
vt 6.24679 0.990378 
vt 6.29151 0.968509 
vt 6.32008 0.945082 
vt 12.084 1 
vt 12 1 
vt 12.084 0.9375 
vt 12 0.9375 
vt 12.084 0.875 
vt 12 0.875 
vt 12.084 0.8125 
vt 12 0.8125 
vt 12.084 0.75 
vt 12 0.75 
vt 12.084 0.6875 
vt 12 0.6875 
vt 12.084 0.625 
vt 12 0.625 
vt 12.084 1 
vt 12 1 
vt 12.084 0.9375 
vt 12 0.9375 
vt 12.084 0.875 
vt 12 0.875 
vt 12.084 0.8125 
vt 12 0.8125 
vt 12.084 0.75 
vt 12 0.75 
vt 12.084 0.6875 
vt 12 0.6875 
vt 12.084 0.625 
vt 12 0.625 

usemtl Part2Mtl

f 115/115/115 117/117/117 116/116/116 
f 115/115/115 118/118/118 117/117/117 
f 115/115/115 119/119/119 118/118/118 
f 115/115/115 120/120/120 119/119/119 
f 115/115/115 121/121/121 120/120/120 
f 115/115/115 122/122/122 121/121/121 
f 115/115/115 124/124/124 123/123/123 
f 115/115/115 125/125/125 124/124/124 
f 115/115/115 126/126/126 125/125/125 
f 115/115/115 127/127/127 126/126/126 
f 115/115/115 128/128/128 127/127/127 
f 115/115/115 129/129/129 128/128/128 
f 115/115/115 131/131/131 130/130/130 
f 115/115/115 132/132/132 131/131/131 
f 115/115/115 133/133/133 132/132/132 
f 115/115/115 134/134/134 133/133/133 
f 115/115/115 135/135/135 134/134/134 
f 115/115/115 136/136/136 135/135/135 
f 115/115/115 138/138/138 137/137/137 
f 115/115/115 139/139/139 138/138/138 
f 115/115/115 140/140/140 139/139/139 
f 115/115/115 141/141/141 140/140/140 
f 115/115/115 142/142/142 141/141/141 
f 115/115/115 143/143/143 142/142/142 
f 144/144/144 145/145/145 146/146/146 
f 146/146/146 145/145/145 147/147/147 
f 146/146/146 147/147/147 148/148/148 
f 148/148/148 147/147/147 149/149/149 
f 148/148/148 149/149/149 150/150/150 
f 150/150/150 149/149/149 151/151/151 
f 150/150/150 151/151/151 152/152/152 
f 152/152/152 151/151/151 153/153/153 
f 152/152/152 153/153/153 154/154/154 
f 154/154/154 153/153/153 155/155/155 
f 154/154/154 155/155/155 156/156/156 
f 156/156/156 155/155/155 157/157/157 
f 158/158/158 159/159/159 160/160/160 
f 160/160/160 159/159/159 161/161/161 
f 160/160/160 161/161/161 162/162/162 
f 162/162/162 161/161/161 163/163/163 
f 162/162/162 163/163/163 164/164/164 
f 164/164/164 163/163/163 165/165/165 
f 164/164/164 165/165/165 166/166/166 
f 166/166/166 165/165/165 167/167/167 
f 166/166/166 167/167/167 168/168/168 
f 168/168/168 167/167/167 169/169/169 
f 168/168/168 169/169/169 170/170/170 
f 170/170/170 169/169/169 171/171/171 
f 172/172/172 174/174/174 173/173/173 
f 172/172/172 175/175/175 174/174/174 
f 172/172/172 176/176/176 175/175/175 
f 172/172/172 177/177/177 176/176/176 
f 172/172/172 178/178/178 177/177/177 
f 172/172/172 179/179/179 178/178/178 
f 172/172/172 181/181/181 180/180/180 
f 172/172/172 182/182/182 181/181/181 
f 172/172/172 183/183/183 182/182/182 
f 172/172/172 184/184/184 183/183/183 
f 172/172/172 185/185/185 184/184/184 
f 172/172/172 186/186/186 185/185/185 
f 172/172/172 188/188/188 187/187/187 
f 172/172/172 189/189/189 188/188/188 
f 172/172/172 190/190/190 189/189/189 
f 172/172/172 191/191/191 190/190/190 
f 172/172/172 192/192/192 191/191/191 
f 172/172/172 193/193/193 192/192/192 
f 172/172/172 195/195/195 194/194/194 
f 172/172/172 196/196/196 195/195/195 
f 172/172/172 197/197/197 196/196/196 
f 172/172/172 198/198/198 197/197/197 
f 172/172/172 199/199/199 198/198/198 
f 172/172/172 200/200/200 199/199/199 
f 201/201/201 202/202/202 203/203/203 
f 203/203/203 202/202/202 204/204/204 
f 203/203/203 204/204/204 205/205/205 
f 205/205/205 204/204/204 206/206/206 
f 205/205/205 206/206/206 207/207/207 
f 207/207/207 206/206/206 208/208/208 
f 207/207/207 208/208/208 209/209/209 
f 209/209/209 208/208/208 210/210/210 
f 209/209/209 210/210/210 211/211/211 
f 211/211/211 210/210/210 212/212/212 
f 211/211/211 212/212/212 213/213/213 
f 213/213/213 212/212/212 214/214/214 
f 215/215/215 216/216/216 217/217/217 
f 217/217/217 216/216/216 218/218/218 
f 217/217/217 218/218/218 219/219/219 
f 219/219/219 218/218/218 220/220/220 
f 219/219/219 220/220/220 221/221/221 
f 221/221/221 220/220/220 222/222/222 
f 221/221/221 222/222/222 223/223/223 
f 223/223/223 222/222/222 224/224/224 
f 223/223/223 224/224/224 225/225/225 
f 225/225/225 224/224/224 226/226/226 
f 225/225/225 226/226/226 227/227/227 
f 227/227/227 226/226/226 228/228/228 

